# xmcd
#
# Track frame offsets:
#	150
#	12038
#	22067
#	31739
#	44616
#	56016
#	69804
#	81047
#	98035
#	105080
#	116856
#	126569
#	141035
#	158834
#	173126
#	189426
#
# Disc length: 2704 seconds
#
# Revision: 0
# Processed by: cddbd v1.5.2PL0 Copyright (c) Steve Scherf et al.
# Submitted via: audiograbber 1.82.01
#
DISCID=ca0a8e10
DTITLE=The Highwaymen - Country Legends
DYEAR=2005
DGENRE=Country
TTITLE0=Highwayman [live] - Johnny Cash 
TTITLE1=On The Road Again [live] - Willie Nelson 
TTITLE2=Abilene - Waylon Jennings 
TTITLE3=Jesse Younger - Kris Kristofferson 
TTITLE4=Big River [live] - Johnny Cash 
TTITLE5=Blue Eyes Crying In The Rain [live] - Willie Nelson 
TTITLE6=Lorena - Waylon Jennings 
TTITLE7=Sunday Morning Coming Down [live] - Johnny Cash 
TTITLE8=Luckenbach, Texas [live] - Willie Nelson 
TTITLE9=Burning Memories - Waylon Jennings 
TTITLE10=Help Me [live] - Johnny Cash 
TTITLE11=Out Of Mind, Out Of Sight - Kris Kristofferson 
TTITLE12=Red-Headed Stranger [live] - Willie Nelson 
TTITLE13=Love Of The Common People - Waylon Jennings 
TTITLE14=City Of New Orleans [live] - Johnny Cash 
TTITLE15=Undo The Right - Willie Nelson 
EXTD=
EXTT0=
EXTT1=
EXTT2=
EXTT3=
EXTT4=
EXTT5=
EXTT6=
EXTT7=
EXTT8=
EXTT9=
EXTT10=
EXTT11=
EXTT12=
EXTT13=
EXTT14=
EXTT15=
PLAYORDER=
